<svg width="20" height="21" viewBox="0 0 20 21" fill="none" xmlns="http://www.w3.org/2000/svg">
<path d="M15.1831 0.191572C15.4271 -0.0638575 15.8229 -0.0638575 16.0669 0.191572L19.8169 4.11599C20.061 4.37142 20.061 4.78555 19.8169 5.04098L7.31695 18.1224C7.2571 18.185 7.18572 18.2343 7.10713 18.2672L0.857137 20.8834C0.625001 20.9806 0.359865 20.9237 0.183076 20.7386C0.00628736 20.5536 -0.0481339 20.2762 0.0447202 20.0332L2.54472 13.4925C2.57615 13.4103 2.62322 13.3356 2.68307 13.273L15.1831 0.191572ZM14.0089 3.27035L16.875 6.26977L18.4911 4.57848L15.625 1.57906L14.0089 3.27035ZM15.9911 7.19476L13.125 4.19534L5.00001 12.6982V13.0814H5.62501C5.97019 13.0814 6.25001 13.3742 6.25001 13.7355V14.3895H6.87501C7.22019 14.3895 7.50001 14.6824 7.50001 15.0436V15.6977H7.86613L15.9911 7.19476ZM3.78958 13.965L3.65767 14.103L1.74693 19.1021L6.52378 17.1024L6.65569 16.9644C6.4187 16.8714 6.25001 16.6322 6.25001 16.3517V15.6977H5.62501C5.27984 15.6977 5.00001 15.4048 5.00001 15.0436V14.3895H4.37501C4.10701 14.3895 3.8784 14.213 3.78958 13.965Z" fill="#747474"/>
</svg>
