<svg width="30" height="30" viewBox="0 0 30 30" fill="none" xmlns="http://www.w3.org/2000/svg">
<path fill-rule="evenodd" clip-rule="evenodd" d="M5 22.9375C5 22.4197 5.41973 22 5.9375 22H24.6875C25.2053 22 25.625 22.4197 25.625 22.9375C25.625 23.4553 25.2053 23.875 24.6875 23.875H5.9375C5.41973 23.875 5 23.4553 5 22.9375Z" fill="#272727"/>
<path fill-rule="evenodd" clip-rule="evenodd" d="M5 15.4375C5 14.9197 5.41973 14.5 5.9375 14.5H24.6875C25.2053 14.5 25.625 14.9197 25.625 15.4375C25.625 15.9553 25.2053 16.375 24.6875 16.375H5.9375C5.41973 16.375 5 15.9553 5 15.4375Z" fill="#272727"/>
<path fill-rule="evenodd" clip-rule="evenodd" d="M5 7.9375C5 7.41973 5.41973 7 5.9375 7H24.6875C25.2053 7 25.625 7.41973 25.625 7.9375C25.625 8.45527 25.2053 8.875 24.6875 8.875H5.9375C5.41973 8.875 5 8.45527 5 7.9375Z" fill="#272727"/>
</svg>
